<svg width="768" height="8" viewBox="0 0 768 8" fill="none" xmlns="http://www.w3.org/2000/svg">
<path d="M758.49 3.02606H9.51058C8.11996 3.02606 7.13037 3.64585 7.13037 4.26565C7.13037 4.88544 8.31787 5.50523 9.51058 5.50523H758.688C760.078 5.50523 761.068 4.88544 761.068 4.26565C761.068 3.43752 759.88 3.02606 758.49 3.02606Z" fill="#768A96"/>
<mask id="mask0_56_9785" style="mask-type:luminance" maskUnits="userSpaceOnUse" x="757" y="0" width="5" height="8">
<path d="M757.333 0.161438H761.333V7.99998H757.333V0.161438Z" fill="white"/>
</mask>
<g mask="url(#mask0_56_9785)">
<path d="M759.083 0.546875L759.88 2.40625C760.078 3.02604 760.276 3.64583 760.672 4.26563L759.88 6.11979C759.682 6.73958 759.286 7.35937 759.083 7.97917C758.885 7.35937 758.49 6.73958 758.292 6.11979L757.5 4.26563C757.896 3.64583 758.094 3.02604 758.292 2.40625L759.083 0.546875Z" fill="#768A96"/>
</g>
<path d="M768 4.26563L764.036 3.84896C762.651 3.64583 761.265 3.64583 760.078 3.4375L756.114 3.84896C754.729 4.05729 753.338 4.05729 752.151 4.26563C753.542 4.46875 754.927 4.46875 756.114 4.67708L760.078 5.08854C761.463 4.88542 762.849 4.88542 764.036 4.67708L768 4.26563Z" fill="#768A96"/>
<mask id="mask1_56_9785" style="mask-type:luminance" maskUnits="userSpaceOnUse" x="6" y="0" width="5" height="8">
<path d="M6.6665 0.161438H10.6665V7.99998H6.6665V0.161438Z" fill="white"/>
</mask>
<g mask="url(#mask1_56_9785)">
<path d="M8.91667 7.77606L8.11979 5.91669C7.92187 5.2969 7.72396 4.6771 7.32812 4.05731L8.11979 2.19794C8.31771 1.57815 8.71354 0.958354 8.91667 0.338562C9.11458 0.958354 9.51042 1.57815 9.70833 2.19794L10.5 4.05731C10.1042 4.6771 9.90625 5.2969 9.70833 5.91669L8.91667 7.77606Z" fill="#768A96"/>
</g>
<path d="M0 4.26563L3.96354 4.67708C5.34896 4.88542 6.73438 4.88542 7.92188 5.08854L11.8854 4.67708C13.2708 4.46875 14.6563 4.46875 15.849 4.26563C14.4583 4.05729 13.0729 4.05729 11.8854 3.84896L7.92188 3.4375C6.53646 3.64583 5.15104 3.64583 3.96354 3.84896L0 4.26563Z" fill="#768A96"/>
</svg>
