<svg width="768" height="356" viewBox="0 0 768 356" fill="none" xmlns="http://www.w3.org/2000/svg">
<mask id="mask0_60_9914" style="mask-type:luminance" maskUnits="userSpaceOnUse" x="562" y="304" width="37" height="52">
<path d="M562.667 304.667H598.667V355.401H562.667V304.667Z" fill="white"/>
</mask>
<g mask="url(#mask0_60_9914)">
<path d="M569.182 355.469C568.323 355.469 567.771 354.859 567.557 354.339C567.302 353.672 567.458 352.984 567.984 352.49C570.739 349.875 572.802 346.641 574.114 342.885C574.536 341.672 573.989 340.318 572.828 339.75C566.557 336.672 562.63 330.177 562.797 323.198C563.036 313.865 570.526 306.214 579.849 305.776C580.146 305.76 580.432 305.76 580.713 305.76C590.588 305.76 598.63 313.797 598.63 323.667C598.63 323.693 598.63 323.948 598.614 324.375C598.573 325.432 598.442 326.49 598.218 327.505C597.698 330.203 596.479 334.344 593.656 338.802L593.625 338.849C587.552 349.75 577.182 353.885 569.567 355.438C569.437 355.453 569.312 355.469 569.182 355.469Z" fill="#44576D"/>
</g>
<mask id="mask1_60_9914" style="mask-type:luminance" maskUnits="userSpaceOnUse" x="608" y="304" width="36" height="52">
<path d="M608 304.667H644V355.401H608V304.667Z" fill="white"/>
</mask>
<g mask="url(#mask1_60_9914)">
<path d="M614.469 355.469C613.604 355.469 613.052 354.859 612.854 354.339C612.589 353.672 612.745 352.984 613.266 352.49C616.021 349.875 618.084 346.641 619.396 342.885C619.823 341.672 619.271 340.318 618.11 339.75C611.839 336.672 607.912 330.177 608.078 323.198C608.323 313.865 615.808 306.214 625.136 305.776C625.433 305.76 625.714 305.76 625.995 305.76C635.886 305.76 643.912 313.797 643.912 323.667C643.912 323.693 643.927 323.948 643.896 324.375C643.854 325.432 643.729 326.479 643.5 327.505C642.979 330.203 641.776 334.344 638.938 338.802L638.912 338.849C632.834 349.75 622.479 353.885 614.849 355.438C614.719 355.453 614.594 355.469 614.469 355.469Z" fill="#44576D"/>
</g>
<mask id="mask2_60_9914" style="mask-type:luminance" maskUnits="userSpaceOnUse" x="168" y="0" width="38" height="52">
<path d="M168 0.401001H205.333V51.3333H168V0.401001Z" fill="white"/>
</mask>
<g mask="url(#mask2_60_9914)">
<path d="M186.375 50.1093C176.489 50.1093 168.448 42.0729 168.448 32.2031C168.448 32.1614 168.448 31.9166 168.474 31.4948C168.521 30.4218 168.646 29.375 168.87 28.3437C169.396 25.651 170.594 21.526 173.437 17.0468L173.463 17.0052C179.536 6.10413 189.896 1.96871 197.526 0.427043C197.651 0.401001 197.781 0.385376 197.906 0.385376C198.765 0.385376 199.318 0.994751 199.515 1.51558C199.786 2.17704 199.63 2.86975 199.109 3.38017C196.354 5.97913 194.292 9.2135 192.974 12.9687C192.552 14.1979 193.104 15.552 194.26 16.1145C200.521 19.1979 204.463 25.6927 204.292 32.651C204.052 42 196.562 49.6562 187.224 50.0781C186.943 50.0937 186.661 50.1093 186.375 50.1093Z" fill="#44576D"/>
</g>
<mask id="mask3_60_9914" style="mask-type:luminance" maskUnits="userSpaceOnUse" x="122" y="0" width="38" height="52">
<path d="M122.667 0.401001H160V51.3333H122.667V0.401001Z" fill="white"/>
</mask>
<g mask="url(#mask3_60_9914)">
<path d="M141.094 50.1093C131.203 50.1093 123.167 42.0729 123.167 32.2031C123.167 32.1614 123.167 31.9166 123.193 31.4948C123.234 30.4375 123.364 29.375 123.588 28.3437C124.109 25.651 125.312 21.526 128.151 17.0468L128.182 17.0052C134.255 6.10413 144.614 1.96871 152.239 0.427043C152.37 0.401001 152.495 0.385376 152.625 0.385376C153.484 0.385376 154.021 0.994751 154.234 1.51558C154.5 2.17704 154.349 2.86975 153.823 3.38017C151.068 5.97913 148.995 9.2135 147.693 12.9687C147.271 14.1979 147.818 15.552 148.979 16.1145C155.25 19.1979 159.177 25.6927 158.995 32.651C158.771 42 151.265 49.6562 141.943 50.0781C141.661 50.0937 141.375 50.1093 141.094 50.1093Z" fill="#44576D"/>
</g>
<path d="M39.1667 327.818C18.0052 327.818 0.78125 310.604 0.78125 289.448V67.9271C0.78125 46.776 18.0052 29.5625 39.1667 29.5625H77.5573V37.1458H39.1667C22.1875 37.1458 8.35417 50.9531 8.35417 67.9271V289.448C8.35417 306.422 22.1875 320.25 39.1667 320.25H520.188V327.818H39.1667Z" fill="#44576D"/>
<mask id="mask4_60_9914" style="mask-type:luminance" maskUnits="userSpaceOnUse" x="246" y="29" width="522" height="300">
<path d="M246.734 29.3229H767.115V328.667H246.734V29.3229Z" fill="white"/>
</mask>
<g mask="url(#mask4_60_9914)">
<path d="M690.312 327.818V320.25H728.698C745.693 320.25 759.515 306.422 759.515 289.448V67.9271C759.515 50.9531 745.693 37.1458 728.698 37.1458H247.698V29.5625H728.698C749.875 29.5625 767.088 46.776 767.088 67.9271V289.448C767.088 310.604 749.875 327.818 728.698 327.818H690.312Z" fill="#44576D"/>
</g>
</svg>
