<svg width="307" height="218" viewBox="0 0 307 218" fill="none" xmlns="http://www.w3.org/2000/svg">
<path d="M274.708 89.7656H31.9427C14.3333 89.7656 0 104.156 0 121.828V211.589C0 215.13 2.85938 218 6.38542 218C9.91146 218 12.776 215.13 12.776 211.589V192.354H293.87V211.589C293.87 215.13 296.734 218 300.26 218C303.786 218 306.651 215.13 306.651 211.589V121.828C306.651 104.156 292.313 89.7656 274.708 89.7656ZM293.87 179.531H12.776V166.708H293.87V179.531ZM31.9427 76.9427H63.8854C61.9167 76.9427 60.0625 76.0313 58.849 74.4792C57.6354 72.9271 57.2135 70.901 57.6875 68.9792L61.6615 53.0417C63.7969 44.4635 71.4479 38.474 80.25 38.474H121.38C131.948 38.474 140.547 47.1042 140.547 57.7083V70.5313C140.547 74.0729 137.682 76.9427 134.156 76.9427H172.49C168.964 76.9427 166.099 74.0729 166.099 70.5313V57.7083C166.099 47.1042 174.698 38.474 185.266 38.474H226.396C235.198 38.474 242.854 44.4635 244.984 53.0417L248.958 68.9792C249.448 70.8906 249.01 72.9271 247.797 74.4792C246.583 76.0313 244.729 76.9427 242.766 76.9427H274.708C278.234 76.9427 281.094 74.0729 281.094 70.5313V32.0625C281.094 14.3906 266.76 0 249.151 0H57.4948C39.8906 0 25.5521 14.3906 25.5521 32.0625V70.5313C25.5521 74.0729 28.4167 76.9427 31.9427 76.9427Z" fill="black"/>
</svg>
