<svg width="500" height="502" viewBox="0 0 500 502" fill="none" xmlns="http://www.w3.org/2000/svg">
<path d="M249.849 0C221.469 0 195.771 11.5461 177.177 30.2196C158.578 48.893 147.078 74.6887 147.078 103.183C147.078 109.327 149.526 114.812 153.521 118.828C157.438 122.755 162.74 125.213 168.693 125.297C181.01 125.543 191.042 115.225 191.125 102.858C191.286 69.6896 218.854 42.9108 252.219 44.307C282.969 45.5359 307.844 70.9184 308.495 101.792C309.313 135.039 282.724 162.147 249.771 162.147H205.724C173.26 162.147 147 188.518 147 221.112V501.177H352.542V104.249C352.625 47.089 306.781 0 249.849 0Z" fill="#44576D"/>
</svg>
